<svg width="174" height="40" xmlns="http://www.w3.org/2000/svg">
    <path d="M108.429 0c4.309 0 9.153 1.615 12.489 4.674l-5.645 5.79c-2.422-2.17-4.636-2.886-7.004-2.886-2.368 0-5.33.81-5.33 3.82 0 2.524 2.263 3.38 5.871 4.514 5.167 1.667 11.84 3.82 11.84 11.4 0 8.763-7.052 12.688-14.586 12.688-5.437 0-10.93-1.988-14.264-5.484l5.644-5.785c2.248 2.418 5.604 3.689 8.62 3.689 2.797 0 5.274-1.08 5.274-4.141 0-2.903-2.909-3.875-7.913-5.494-4.84-1.557-9.74-3.971-9.74-10.849C93.686 3.494 101.329 0 108.43 0zm54.904 19.737c1.478 0 2.834.247 4.07.745 1.235.497 2.297 1.188 3.183 2.075a9.498 9.498 0 0 1 2.075 3.143c.497 1.208.746 2.525.746 3.948 0 1.424-.25 2.74-.746 3.949a9.493 9.493 0 0 1-2.075 3.143c-.886.886-1.948 1.578-3.183 2.075-1.236.496-2.592.745-4.07.745-1.45 0-2.794-.249-4.03-.745-1.234-.497-2.296-1.189-3.182-2.075a9.493 9.493 0 0 1-2.075-3.143c-.497-1.209-.745-2.525-.745-3.95 0-1.422.248-2.739.745-3.947a9.498 9.498 0 0 1 2.075-3.143c.886-.887 1.948-1.578 3.183-2.075 1.235-.498 2.58-.745 4.03-.745zm-17.611.483v18.857h-2.74V20.22h2.74zm5.718-11.605v30.462h-2.74V8.615h2.74zm-13.173-.483c.349 0 .726.02 1.128.06.303.03.59.08.862.148l.267.074-.484 2.418c-.296-.081-.591-.148-.886-.202a5.689 5.689 0 0 0-1.007-.08c-.726 0-1.324.12-1.793.362a2.59 2.59 0 0 0-1.088 1.027c-.256.444-.43.961-.524 1.552-.076.473-.12.972-.135 1.496l-.006.398v4.834h4.432v2.298h-4.432v16.56h-2.74v-16.56h-3.949v-2.298h3.949v-5.157c0-2.148.524-3.84 1.571-5.077 1.048-1.235 2.66-1.853 4.835-1.853zM25.323.964 40.91 39.032H30.688L27.73 31.56H12.976l-2.794 7.472H0L16.155.964h9.168zm20.304 0 8.986 27.51L63.44.963h10.17L58.922 39.032h-9.205L35.294.964h10.333zm40.927 0v38.068h-9.256V.964h9.256zm76.78 21.07c-1.102 0-2.09.201-2.962.606a6.809 6.809 0 0 0-2.236 1.635 7.279 7.279 0 0 0-1.43 2.424 8.67 8.67 0 0 0-.504 2.97c0 1.05.167 2.04.503 2.97a7.275 7.275 0 0 0 1.43 2.423 6.569 6.569 0 0 0 2.237 1.616c.873.39 1.86.586 2.961.586 1.102 0 2.096-.195 2.982-.586a6.535 6.535 0 0 0 2.257-1.616 7.285 7.285 0 0 0 1.43-2.423c.336-.93.504-1.92.504-2.97 0-1.05-.168-2.04-.504-2.97a7.289 7.289 0 0 0-1.43-2.424 6.77 6.77 0 0 0-2.257-1.635c-.886-.405-1.88-.607-2.982-.607zM20.457 11.128 15.62 24.195h9.577L20.458 11.13zm123.894-.096c.483 0 .926.181 1.33.544.402.362.604.826.604 1.39s-.202 1.028-.605 1.39c-.403.363-.846.544-1.33.544-.483 0-.926-.181-1.33-.544-.402-.362-.604-.826-.604-1.39s.202-1.028.605-1.39c.403-.363.846-.544 1.33-.544zM127.937.964c1.813 0 3.272 1.44 3.272 3.24 0 1.802-1.46 3.212-3.272 3.212-1.793 0-3.25-1.41-3.25-3.212 0-1.8 1.457-3.24 3.25-3.24zm0 .498a2.739 2.739 0 0 0-2.735 2.742c0 1.499 1.228 2.744 2.735 2.744a2.761 2.761 0 0 0 2.757-2.744 2.748 2.748 0 0 0-2.757-2.742zm.006.897c.701 0 1.377.287 1.377 1.072 0 .529-.329.873-.846.987l.986 1.6h-.798l-.847-1.527h-.481V6.02h-.66v-3.66zm-.013.56h-.596v1.04h.514c.385 0 .814-.1.814-.542 0-.4-.387-.499-.732-.499z" fill="#FFF" fill-rule="evenodd"/>
</svg>
