<svg xmlns="http://www.w3.org/2000/svg" width="164" height="36" viewBox="0 0 164 36">
    <g fill="none" fill-rule="evenodd">
        <g>
            <g>
                <g>
                    <g>
                        <path fill="#F16322" d="M0 0L0 25.499 37.959 0z" transform="translate(-160 -22) translate(160 15) translate(0 7.745)"/>
                        <path fill="#F89D3E" d="M21.021 25.499L37.959 25.499 37.959 0.404z" transform="translate(-160 -22) translate(160 15) translate(0 7.745)"/>
                    </g>
                    <path fill="#FEFEFE" d="M52.252 10.477c.77 0 2.014-.046 2.745-.397 1.106-.606 1.459-1.555 1.459-2.996 0-1.55-.935-2.469-1.72-2.836-.6-.303-1.375-.431-2.585-.431h-3.54v6.66h3.641zm.692 11.2c1.101 0 1.958-.13 2.628-.4 1.374-.616 2.194-1.738 2.223-3.378 0-1.564-.879-2.764-2.225-3.34-.97-.403-1.766-.432-2.963-.432H48.61v7.55h4.333zm-8.594 3.822V0h8.854c3.446 0 7.608 1.814 7.608 6.608 0 2.863-1.341 4.702-2.548 5.386 3.246 1.246 3.882 4.33 3.882 6.146 0 4.075-3.363 7.359-8.711 7.359H44.35zm37.203-9.434V6.28H77.36v9.785c0 3.48-1.782 5.725-4.572 5.725-2.782 0-4.563-2.246-4.563-5.725V6.28h-4.2v9.785c0 5.84 3.896 9.573 8.763 9.573 4.877 0 8.764-3.734 8.764-9.573zm11.65-6.334c-3.016 0-5.375 2.662-5.375 6.068 0 3.305 2.403 5.986 5.375 5.986 2.947 0 5.437-2.738 5.437-5.986 0-3.346-2.441-6.068-5.437-6.068zm0 15.907c-5.363 0-9.576-4.28-9.576-9.875 0-5.615 4.213-9.914 9.576-9.914 1.956 0 3.928.709 5.437 2.072V0h4.188v25.246h-4.084v-1.768c-1.5 1.42-3.508 2.16-5.54 2.16zm21.52-3.858c-3.015 0-5.374-2.686-5.374-6.089 0-3.307 2.404-5.99 5.374-5.99 2.947 0 5.437 2.74 5.437 5.99 0 3.343-2.441 6.089-5.437 6.089zm5.54-15.5v1.73c-1.498-1.42-3.507-2.161-5.54-2.161-5.363 0-9.568 4.28-9.568 9.877 0 5.614 4.205 9.913 9.568 9.913 1.955 0 3.928-.71 5.437-2.073 0 0 .848 7.24-5.54 7.24-2.693 0-4.594-1.934-5.447-3.39l-3.35 2.35c1.646 3.073 5.131 4.957 8.797 4.957 2.467 0 4.892-.7 6.617-2.21 2.025-1.786 3.135-4.27 3.135-7.618V6.28h-4.108zm10.75 7.695c.151-1.135 1.528-4.3 4.951-4.3 3.32 0 4.775 3.067 4.905 4.3h-9.856zm11.55-5.442c-1.748-1.831-4.123-2.683-6.604-2.683-5.302 0-9.386 4.401-9.386 9.93 0 5.583 3.995 9.858 9.486 9.858 2.89 0 5.813-1.498 7.605-3.788l-3.27-2.29c-1.075 1.477-2.903 2.252-4.335 2.252-2.24 0-4.52-1.598-5.08-4.348h14.05s1.282-5-2.466-8.93zm12.053 13.275c-2.13 0-3.12-1.038-3.12-3.274V9.983h4.093V6.28h-4.093V.983h-4.188v17.551c0 4.443 2.547 7.104 6.65 7.104.855 0 1.701-.124 1.701-.124v-3.758c-.526.045-.824.052-1.043.052zm6.53-18.346c.308 0 .664-.083.664-.45 0-.332-.319-.416-.605-.416h-.499v.866h.44zm-.985-1.328h1.069c.568 0 1.127.238 1.127.89 0 .438-.273.723-.7.818l.817 1.327h-.664L161.1 3.9h-.394v1.27h-.545V2.133zm1.056 3.807c1.257 0 2.277-1.032 2.277-2.277 0-1.257-1.02-2.277-2.277-2.277-1.256 0-2.279 1.02-2.279 2.277 0 1.245 1.023 2.277 2.28 2.277zm0-4.969c1.495 0 2.706 1.198 2.706 2.692 0 1.493-1.211 2.667-2.706 2.667-1.494 0-2.706-1.174-2.706-2.667 0-1.494 1.212-2.692 2.706-2.692z" transform="translate(-160 -22) translate(160 15) translate(0 7.745)"/>
                </g>
            </g>
        </g>
    </g>
</svg>
