<svg width="431" height="75" viewBox="0 0 431 75" fill="none" xmlns="http://www.w3.org/2000/svg">
<path d="M347.542 72.7172C347.161 72.7172 346.906 72.4628 346.906 72.0811V3.24556C346.906 2.86385 347.161 2.60938 347.542 2.60938C347.924 2.60938 348.179 2.86385 348.179 3.24556V72.0811C348.179 72.3991 347.861 72.7172 347.542 72.7172Z" fill="#DBDADB"/>
<path d="M430.247 3.24512H365.355V72.0806H430.247V3.24512Z" fill="#F7A724"/>
<path d="M396.083 19.5312V40.0165C396.083 45.1696 392.202 49.2412 385.841 49.2412C380.942 49.2412 375.916 46.442 375.916 39.2531V20.231L381.387 19.5949V38.4896C381.387 40.9708 381.833 44.0245 386.095 44.0245C389.912 44.0245 390.612 41.4161 390.612 38.0443V20.231L396.083 19.5312Z" fill="white"/>
<path d="M403.145 30.0279C405.308 27.8648 406.707 27.165 409.57 27.165C415.423 27.165 419.749 32.4454 419.749 38.2347C419.749 43.4514 415.55 49.1135 409.507 49.1135C407.471 49.1135 405.308 48.4773 403.399 46.8869V55.0937L398.246 55.7299V27.8012L403.145 27.165V30.0279ZM408.934 44.4057C412.369 44.4057 414.914 41.5429 414.914 38.1711C414.914 34.7993 412.369 31.9364 408.934 31.9364C405.499 31.9364 402.954 34.7993 402.954 38.1711C402.954 41.4793 405.499 44.4057 408.934 44.4057Z" fill="white"/>
<path d="M134.549 56.4939C134.549 58.5933 134.04 59.1022 131.94 59.1022H131.177C129.077 59.1022 128.568 58.5933 128.568 56.4939V41.0981C128.568 33.6547 132.449 29.9648 140.211 29.9648C144.409 29.9648 147.272 31.3645 148.863 34.1637C150.39 31.3645 153.316 29.9648 157.515 29.9648C165.531 29.9648 169.094 33.782 169.094 41.0981V56.4939C169.094 58.5933 168.585 59.1022 166.485 59.1022H165.722C163.622 59.1022 163.113 58.5933 163.113 56.4939V41.0981C163.113 37.2174 161.841 35.4361 157.451 35.4361C152.998 35.4361 151.662 37.1538 151.662 41.0981V56.4939C151.662 58.5933 151.153 59.1022 149.054 59.1022H148.481C146.382 59.1022 145.873 58.5933 145.873 56.4939V41.0981C145.873 37.2174 144.6 35.4361 140.211 35.4361C135.821 35.4361 134.485 37.1538 134.485 41.0981V56.4939H134.549Z" fill="#211D3C"/>
<path d="M179.654 48.4776C179.654 52.3584 181.117 54.1397 186.27 54.1397C191.36 54.1397 192.823 52.422 192.823 48.4776V33.1455C192.823 31.0461 193.332 30.5371 195.431 30.5371H196.195C198.294 30.5371 198.803 31.0461 198.803 33.1455V48.4776C198.803 55.921 195.049 59.6745 186.334 59.6745C178 59.6745 173.801 55.921 173.801 48.4776V33.1455C173.801 31.0461 174.31 30.5371 176.409 30.5371H177.173C179.272 30.5371 179.781 31.0461 179.781 33.1455V48.4776H179.654Z" fill="#211D3C"/>
<path d="M203.383 21.4404C203.383 19.341 203.892 18.832 205.991 18.832H206.755C208.854 18.832 209.363 19.341 209.363 21.4404V49.878C209.363 52.9317 210.254 53.9496 212.035 53.9496C213.944 53.9496 214.198 54.2677 214.198 56.2399V56.8124C214.198 58.721 213.753 59.0391 211.844 59.4844C211.59 59.548 211.335 59.548 211.017 59.548C206.437 59.548 203.383 56.8761 203.383 51.0231V21.4404Z" fill="#211D3C"/>
<path d="M214.199 33.5272C214.199 31.9368 214.581 31.4278 216.171 31.1733L219.225 30.6008L219.925 25.1932C220.179 23.5391 220.625 23.0938 222.279 23.0938H223.042C224.696 23.0938 225.142 23.4755 225.142 25.1932V30.6008H233.158C235.066 30.6008 235.575 30.9825 235.575 33.0183V33.7181C235.575 35.7539 235.066 36.1356 233.158 36.1356H225.142V49.1774C225.142 52.4856 226.605 54.2033 229.595 54.2033C231.313 54.2033 232.84 54.0125 234.239 53.6944C236.148 53.3127 236.593 53.6944 236.593 55.7302V56.43C236.593 58.3386 236.148 58.9111 234.239 59.2928C232.712 59.6109 231.122 59.7382 229.595 59.7382C222.724 59.7382 219.225 56.2391 219.225 49.1774V36.1992H216.235C214.645 36.1992 214.199 35.8175 214.199 34.1634V33.5272Z" fill="#211D3C"/>
<path d="M240.41 19.2771C241.873 17.8139 244.163 17.8139 245.499 19.2771C246.963 20.6767 246.963 22.967 245.499 24.3666C244.1 25.7662 241.81 25.7662 240.41 24.3666C238.947 22.9034 238.947 20.6131 240.41 19.2771ZM239.965 33.146C239.965 31.0466 240.474 30.5376 242.573 30.5376H243.336C245.436 30.5376 245.945 31.0466 245.945 33.146V56.4941C245.945 58.5935 245.436 59.1025 243.336 59.1025H242.573C240.474 59.1025 239.965 58.5935 239.965 56.4941V33.146Z" fill="#211D3C"/>
<path d="M257.207 56.4939C257.207 58.5933 256.698 59.1022 254.598 59.1022H253.835C251.736 59.1022 251.227 58.5933 251.227 56.4939V41.0981C251.227 33.6547 255.425 29.9648 263.759 29.9648C272.475 29.9648 276.229 33.7184 276.229 41.0981V56.4939C276.229 58.5933 275.72 59.1022 273.62 59.1022H272.857C270.758 59.1022 270.249 58.5933 270.249 56.4939V41.0981C270.249 37.2174 268.785 35.4361 263.696 35.4361C258.606 35.4361 257.079 37.1538 257.079 41.0981V56.4939H257.207Z" fill="#211D3C"/>
<path d="M305.302 44.3427C305.047 46.4421 304.475 47.0147 302.375 47.0147H286.407V48.287C286.407 52.4859 288.824 54.14 294.614 54.14C296.967 54.14 299.449 53.8219 302.057 53.2493C303.902 52.804 304.411 53.2493 304.411 55.2851V56.0485C304.411 57.9571 304.093 58.3388 302.057 58.8478C299.767 59.4839 297.286 59.7384 294.614 59.7384C284.944 59.7384 280.49 56.1122 280.49 47.46V42.4341C280.49 34.1001 284.753 29.9648 293.278 29.9648C301.294 29.9648 305.492 34.0364 305.492 41.8615C305.429 42.6886 305.365 43.5156 305.302 44.3427ZM286.407 42.1796H299.83V40.7164C299.83 36.8993 297.604 35.0543 293.023 35.0543C288.57 35.0543 286.343 36.9629 286.343 40.7164V42.1796H286.407Z" fill="#211D3C"/>
<path d="M307.338 33.5272C307.338 31.9368 307.72 31.4278 309.31 31.1733L312.364 30.6008L313.064 25.1932C313.318 23.5391 313.763 23.0938 315.417 23.0938H316.181C317.835 23.0938 318.28 23.4755 318.28 25.1932V30.6008H326.296C328.205 30.6008 328.714 30.9825 328.714 33.0183V33.7181C328.714 35.7539 328.205 36.1356 326.296 36.1356H318.28V49.1774C318.28 52.4856 319.744 54.2033 322.734 54.2033C324.451 54.2033 325.978 54.0125 327.378 53.6944C329.286 53.3127 329.732 53.6944 329.732 55.7302V56.43C329.732 58.3386 329.286 58.9111 327.378 59.2928C325.851 59.6109 324.26 59.7382 322.734 59.7382C315.863 59.7382 312.364 56.2391 312.364 49.1774V36.1992H309.374C307.783 36.1992 307.338 35.8175 307.338 34.1634V33.5272Z" fill="#211D3C"/>
<path d="M17.2341 23.9844L2.22005 50.0044C-2.36051 57.9568 0.375105 68.1358 8.32745 72.7163C16.2798 77.2969 26.4588 74.5613 31.103 66.6089L36.5106 57.3206L26.9041 39.6982L17.2341 23.9844Z" fill="url(#paint0_linear_854_3847)"/>
<path d="M36.5109 57.3206C36.4472 57.257 17.2344 23.9844 17.2344 23.9844L34.3478 61.0741L36.5109 57.3206Z" fill="#E38438"/>
<path d="M83.0162 4.70788C80.4079 0.190943 74.6822 -1.3359 70.2289 1.27247C68.8292 2.09951 67.7477 3.18103 66.9207 4.4534L55.6602 23.8571L80.3442 66.6089C84.9248 74.5613 95.1038 77.2969 103.12 72.7163C111.072 68.1358 113.808 57.9568 109.227 50.0044L83.0162 4.70788Z" fill="url(#paint1_linear_854_3847)"/>
<path d="M67.6841 44.7876L44.5904 4.77135C41.9821 0.25442 36.2564 -1.27243 31.8031 1.33594C30.4035 2.16299 29.3219 3.24451 28.4949 4.51688L17.2344 23.9206L41.9185 66.6724C46.499 74.6248 56.678 77.3604 64.694 72.7798C67.2387 71.3166 69.2109 69.2808 70.6105 66.9269L75.5728 58.3384L72.3282 52.7399L67.6841 44.7876Z" fill="url(#paint2_linear_854_3847)"/>
<path d="M75.572 58.4024C75.5084 58.3388 55.5957 23.8574 55.5957 23.8574L73.409 62.1559L75.572 58.4024Z" fill="#2C81AB"/>
<defs>
<linearGradient id="paint0_linear_854_3847" x1="18.3494" y1="71.8133" x2="18.0168" y2="28.5744" gradientUnits="userSpaceOnUse">
<stop offset="0.000353329" stop-color="#F28E00"/>
<stop offset="1" stop-color="#F9C122"/>
</linearGradient>
<linearGradient id="paint1_linear_854_3847" x1="66.0364" y1="11.0863" x2="102.624" y2="68.6279" gradientUnits="userSpaceOnUse">
<stop stop-color="#73BB68"/>
<stop offset="1" stop-color="#00A15A"/>
</linearGradient>
<linearGradient id="paint2_linear_854_3847" x1="28.4239" y1="13.013" x2="64.0135" y2="67.5615" gradientUnits="userSpaceOnUse">
<stop stop-color="#52BBE5"/>
<stop offset="1" stop-color="#0586C2"/>
</linearGradient>
</defs>
</svg>
