<svg width="142" height="72" viewBox="0 0 142 72" fill="none" xmlns="http://www.w3.org/2000/svg">
    <path d="M114.45 53.093c-5.824 0-7.679-3.967-7.679-6.506V33.575c0-3.364 2.347-6.962 7.625-6.962 6.65 0 7.622 5.917 7.622 6.962v2.503h-5.717v-2.17c0-1.426-.435-2.818-1.851-2.818-1.304 0-1.959.824-1.959 1.886v13.61c0 1.017.327 2.027 1.959 2.027 1.632 0 1.851-1.938 1.851-2.81v-2.114h5.717v2.114c0 3.18-2.062 7.29-7.568 7.29zm-6.114 1.315h11.368v4.038h-11.368v-4.038zM25.859 25.743v19.552c0 1.888 0 3.363 2.337 3.363s2.347-1.38 2.347-3.364v-19.55c0-1.205-.383-2.4-2.347-2.4-2.223 0-2.337 1.573-2.337 2.4zm-6.48 18.806V27.727c0-3.373.382-9.326 8.817-9.326 7.57 0 8.829 4.478 8.829 9.326v16.822c0 4.532-1.309 9.085-8.829 9.085-7.943 0-8.817-5.054-8.817-9.085zm28.043 8.55c-2.675 0-5.506-1.301-5.506-7.068V31.316h-2.121v-4.197h2.12v-6.083h5.552v6.083h2.292v4.197h-2.292v13.653c0 2.808.546 3.513 2.613 3.644v4.337c-.437.143-1.687.143-2.66.143l.002.007zm10.605-19.842v13.285c0 1.29.981 1.85 2.017 1.85 1.188 0 1.96-.649 1.96-1.85V33.257c0-1.157-.768-1.889-1.96-1.889-1.036 0-2.017.546-2.017 1.889zm2.017 19.836c-7.625 0-7.739-4.751-7.739-9.404v-7.482c0-5.117.224-9.594 7.739-9.594 7.021 0 7.736 4.107 7.736 8.437v8.639c0 4.644-.109 9.404-7.736 9.404zm16.599-.476h-5.67V19.364h5.67v16.05l4.513-8.313h5.722l-5.121 9.37 5.17 16.136H81.21L78.056 42.09l-1.411 2.404v8.112l-.002.011zM94.26 33.25v13.285c0 1.29.986 1.85 2.02 1.85 1.187 0 1.959-.648 1.959-1.85V33.257c0-1.157-.76-1.889-1.96-1.889-1.033 0-2.019.546-2.019 1.889v-.008zm2.02 19.837c-7.623 0-7.735-4.751-7.735-9.404v-7.475c0-5.117.221-9.594 7.734-9.594 7.024 0 7.729 4.107 7.729 8.437v8.639c0 4.644-.099 9.404-7.729 9.404v-.008z" fill="#fff"/>
</svg>
